<svg width="100" height="100" fill="none" xmlns="http://www.w3.org/2000/svg"><path fill="#1C1C1C" d="M0 0h100v100H0z"/><path fill-rule="evenodd" clip-rule="evenodd" d="M43.75 31.25c-6.904 0-12.5 5.596-12.5 12.5s5.596 12.5 12.5 12.5 12.5-5.596 12.5-12.5-5.596-12.5-12.5-12.5ZM25 43.75C25 33.395 33.395 25 43.75 25S62.5 33.395 62.5 43.75c0 4.05-1.284 7.8-3.466 10.864l15.05 15.051a3.125 3.125 0 1 1-4.419 4.42l-15.05-15.051A18.665 18.665 0 0 1 43.75 62.5C33.395 62.5 25 54.105 25 43.75Z" fill="#fff"/></svg>