<svg width="108" height="108" fill="none" xmlns="http://www.w3.org/2000/svg"><g filter="url('#filter0_d_39_115')"><path fill="#1C1C1C" d="M4 0h100v100H4z"/><path fill-rule="evenodd" clip-rule="evenodd" d="M54 75c13.807 0 25-11.193 25-25S67.807 25 54 25 29 36.193 29 50s11.193 25 25 25Zm3.125-34.375a3.125 3.125 0 1 0-6.25 0v6.25h-6.25a3.125 3.125 0 1 0 0 6.25h6.25v6.25a3.125 3.125 0 1 0 6.25 0v-6.25h6.25a3.125 3.125 0 1 0 0-6.25h-6.25v-6.25Z" fill="#fff"/></g><defs><filter id="filter0_d_39_115" x="0" y="0" width="108" height="108" filterUnits="userSpaceOnUse" color-interpolation-filters="sRGB"><feFlood flood-opacity="0" result="BackgroundImageFix"/><feColorMatrix in="SourceAlpha" values="0 0 0 0 0 0 0 0 0 0 0 0 0 0 0 0 0 0 127 0" result="hardAlpha"/><feOffset dy="4"/><feGaussianBlur stdDeviation="2"/><feComposite in2="hardAlpha" operator="out"/><feColorMatrix values="0 0 0 0 0 0 0 0 0 0 0 0 0 0 0 0 0 0 0.25 0"/><feBlend in2="BackgroundImageFix" result="effect1_dropShadow_39_115"/><feBlend in="SourceGraphic" in2="effect1_dropShadow_39_115" result="shape"/></filter></defs></svg>